<svg width="93.23" height="140.37536971923254" viewBox="0 0 93.23 140.37536971923254" class="css-1j8o68f">
  <defs id="SvgjsDefs3013">
    <linearGradient id="SvgjsLinearGradient3018">
      <stop id="SvgjsStop3019" stop-color="#2d388a" offset="0"/>
      <stop id="SvgjsStop3020" stop-color="#00aeef" offset="1"/>
    </linearGradient>
  </defs>
  <g id="SvgjsG3014" featurekey="hmhgWD-0" transform="matrix(1.6019087626390345,0,0,1.6019087626390345,-33.479724481159266,-7.407118513299505)" fill="url(#SvgjsLinearGradient3018)">
    <g xmlns="http://www.w3.org/2000/svg">
      <g>
        <path d="M55.627,67.777c-2.789,0-5.057,2.357-5.057,5.252c0,2.896,2.268,5.252,5.057,5.252s5.058-2.355,5.058-5.252    C60.685,70.135,58.416,67.777,55.627,67.777z M55.627,74.74c-0.908,0-1.647-0.768-1.647-1.711s0.739-1.711,1.647-1.711    c0.908,0,1.647,0.768,1.647,1.711S56.535,74.74,55.627,74.74z"/>
        <path d="M44.372,67.777c-2.789,0-5.057,2.357-5.057,5.252c0,2.896,2.268,5.252,5.057,5.252c2.789,0,5.058-2.355,5.058-5.252    C49.43,70.135,47.161,67.777,44.372,67.777z M44.372,74.74c-0.908,0-1.646-0.768-1.646-1.711s0.738-1.711,1.646-1.711    s1.647,0.768,1.647,1.711S45.28,74.74,44.372,74.74z"/>
        <ellipse cx="43.775" cy="59.289" rx="1.933" ry="2.008"/>
        <path d="M78.357,36.689c0.649-1.387,1.134-2.826,0.299-3.926c-0.616-0.809-1.605-0.902-2.296-0.902    c-1.714,0-7.094,1.125-11.033,3.016c-0.943-9.912-1.95-25.287-1.963-25.479c-0.06-0.908-0.772-1.621-1.648-1.65    c-0.887-0.043-1.63,0.639-1.744,1.541l-0.994,7.916c-0.759,6.033-1.028,8.178-1.965,15.947c-2.236-1.016-4.61-1.59-7.1-1.59    c-2.413,0-4.721,0.541-6.898,1.5c-0.927-7.697-1.198-9.848-1.954-15.857l-0.994-7.916c-0.113-0.902-0.879-1.57-1.738-1.543    c-0.875,0.027-1.589,0.734-1.653,1.641c-0.014,0.189-1.168,16.418-2.162,25.713c-3.924-1.846-9.184-2.941-10.875-2.941    c-0.69,0-1.681,0.094-2.296,0.904c-0.834,1.1-0.35,2.535,0.298,3.924c0.859,1.84,4.253,7.486,7.553,10.078    c-3.723,6.762-5.878,14.6-5.878,21.066c0,14.654,10.441,24.123,26.598,24.123c16.159,0,26.599-9.469,26.599-24.123    c0-6.504-2.181-14.393-5.943-21.18C73.941,44.449,77.478,38.572,78.357,36.689z M60.312,34.309    c0.385-3.205,0.662-5.486,0.899-7.43c0.267,3.334,0.552,6.654,0.83,9.461c-0.623-0.512-1.26-0.992-1.914-1.432    C60.219,34.725,60.286,34.525,60.312,34.309z M38.767,26.373c0.252,2.053,0.542,4.445,0.962,7.934    c0.021,0.176,0.073,0.336,0.138,0.49c-0.702,0.465-1.386,0.973-2.052,1.52C38.128,33.494,38.459,29.951,38.767,26.373z     M27.678,40.266c-1.328-1.812-2.254-3.387-2.794-4.467c2.707,0.377,6.853,1.758,9.192,2.982c0.258,0.135,0.5,0.27,0.71,0.398    c-0.206,0.223-0.404,0.455-0.604,0.688c-1.133,1.299-2.195,2.703-3.174,4.193C30.227,43.387,29.105,42.213,27.678,40.266z     M73.104,68.131c0,15.191-12.492,20.582-23.189,20.582c-10.697,0-23.188-5.391-23.188-20.582c0-7.232,2.223-14.129,5.551-19.736    c1.999-3.367,4.394-6.268,6.95-8.492c3.473-3.02,7.237-4.801,10.688-4.801c3.834,0,7.535,1.805,10.812,4.727    c0.33,0.293,0.655,0.6,0.976,0.914c0.367,0.363,0.727,0.74,1.081,1.129c0.203,0.223,0.402,0.453,0.6,0.684    c0.71,0.824,1.395,1.693,2.045,2.611c0.656,0.928,1.278,1.898,1.865,2.904C70.869,54.18,73.104,61.553,73.104,68.131z     M68.754,43.961c-0.133-0.203-0.268-0.402-0.403-0.6c-0.664-1.322-1.507-2.533-2.504-3.6c-0.252-0.271-0.508-0.539-0.783-0.789    c0.189-0.123,0.41-0.248,0.646-0.379c2.294-1.248,6.617-2.703,9.407-3.092c-0.542,1.078-1.467,2.652-2.794,4.467    C70.74,42.129,69.538,43.33,68.754,43.961z"/>
        <ellipse cx="56.053" cy="59.289" rx="1.933" ry="2.008"/>
      </g>
    </g>
  </g>
</svg>
